<mxfile host="app.diagrams.net" modified="2022-05-25T22:04:19.555Z" agent="5.0 (Windows NT 10.0; Win64; x64) AppleWebKit/537.36 (KHTML, like Gecko) Chrome/101.0.4951.67 Safari/537.36" etag="PWw8cqebb31Tos3xyFtA" version="18.1.2" type="github">
  <diagram id="x6LJebkulXxpP8k-j8Yy" name="Page-1">
    <mxGraphModel dx="1896" dy="1005" grid="1" gridSize="10" guides="1" tooltips="1" connect="1" arrows="1" fold="1" page="1" pageScale="1" pageWidth="1100" pageHeight="850" math="0" shadow="0">
      <root>
        <mxCell id="0" />
        <mxCell id="1" parent="0" />
        <mxCell id="wVWjdl_f4s-kxVcAb7ZQ-7" value="" style="group;rounded=1;" vertex="1" connectable="0" parent="1">
          <mxGeometry x="100" y="160" width="120" height="120" as="geometry" />
        </mxCell>
        <mxCell id="wVWjdl_f4s-kxVcAb7ZQ-8" value="" style="ellipse;whiteSpace=wrap;html=1;rounded=1;strokeWidth=5;" vertex="1" parent="wVWjdl_f4s-kxVcAb7ZQ-7">
          <mxGeometry width="120" height="120" as="geometry" />
        </mxCell>
        <mxCell id="wVWjdl_f4s-kxVcAb7ZQ-9" value="&lt;b style=&quot;font-size: 20px;&quot;&gt;Wait&lt;/b&gt;" style="text;html=1;strokeColor=none;fillColor=none;align=center;verticalAlign=middle;whiteSpace=wrap;rounded=1;" vertex="1" parent="wVWjdl_f4s-kxVcAb7ZQ-7">
          <mxGeometry x="15" y="37.5" width="90" height="45" as="geometry" />
        </mxCell>
        <mxCell id="wVWjdl_f4s-kxVcAb7ZQ-63" value="" style="group;rounded=1;" vertex="1" connectable="0" parent="1">
          <mxGeometry x="450" y="160" width="120" height="120" as="geometry" />
        </mxCell>
        <mxCell id="wVWjdl_f4s-kxVcAb7ZQ-64" value="" style="ellipse;whiteSpace=wrap;html=1;rounded=1;strokeWidth=5;" vertex="1" parent="wVWjdl_f4s-kxVcAb7ZQ-63">
          <mxGeometry width="120" height="120" as="geometry" />
        </mxCell>
        <mxCell id="wVWjdl_f4s-kxVcAb7ZQ-65" value="&lt;b style=&quot;font-size: 20px;&quot;&gt;Load&lt;br&gt;Start&lt;br&gt;&lt;/b&gt;" style="text;html=1;strokeColor=none;fillColor=none;align=center;verticalAlign=middle;whiteSpace=wrap;rounded=1;" vertex="1" parent="wVWjdl_f4s-kxVcAb7ZQ-63">
          <mxGeometry x="15" y="37.5" width="90" height="45" as="geometry" />
        </mxCell>
        <mxCell id="wVWjdl_f4s-kxVcAb7ZQ-90" style="edgeStyle=orthogonalEdgeStyle;rounded=0;orthogonalLoop=1;jettySize=auto;html=1;exitX=1;exitY=0;exitDx=0;exitDy=0;fontFamily=Courier New;fontSize=24;strokeWidth=5;" edge="1" parent="wVWjdl_f4s-kxVcAb7ZQ-63" source="wVWjdl_f4s-kxVcAb7ZQ-64">
          <mxGeometry relative="1" as="geometry">
            <mxPoint x="59" as="targetPoint" />
            <Array as="points">
              <mxPoint x="140" y="18" />
              <mxPoint x="140" y="-120" />
              <mxPoint x="59" y="-120" />
            </Array>
          </mxGeometry>
        </mxCell>
        <mxCell id="wVWjdl_f4s-kxVcAb7ZQ-66" value="" style="group;rounded=1;" vertex="1" connectable="0" parent="1">
          <mxGeometry x="800" y="160" width="120" height="120" as="geometry" />
        </mxCell>
        <mxCell id="wVWjdl_f4s-kxVcAb7ZQ-67" value="" style="ellipse;whiteSpace=wrap;html=1;rounded=1;strokeWidth=5;" vertex="1" parent="wVWjdl_f4s-kxVcAb7ZQ-66">
          <mxGeometry width="120" height="120" as="geometry" />
        </mxCell>
        <mxCell id="wVWjdl_f4s-kxVcAb7ZQ-68" value="&lt;b style=&quot;font-size: 20px;&quot;&gt;Shift&lt;br&gt;Bit&lt;br&gt;&lt;/b&gt;" style="text;html=1;strokeColor=none;fillColor=none;align=center;verticalAlign=middle;whiteSpace=wrap;rounded=1;" vertex="1" parent="wVWjdl_f4s-kxVcAb7ZQ-66">
          <mxGeometry x="15" y="37.5" width="90" height="45" as="geometry" />
        </mxCell>
        <mxCell id="wVWjdl_f4s-kxVcAb7ZQ-69" value="" style="group;rounded=1;" vertex="1" connectable="0" parent="1">
          <mxGeometry x="620" y="520" width="120" height="120" as="geometry" />
        </mxCell>
        <mxCell id="wVWjdl_f4s-kxVcAb7ZQ-70" value="" style="ellipse;whiteSpace=wrap;html=1;rounded=1;strokeWidth=5;" vertex="1" parent="wVWjdl_f4s-kxVcAb7ZQ-69">
          <mxGeometry width="120" height="120" as="geometry" />
        </mxCell>
        <mxCell id="wVWjdl_f4s-kxVcAb7ZQ-71" value="&lt;b style=&quot;font-size: 20px;&quot;&gt;Load&lt;br&gt;Bit&lt;br&gt;&lt;/b&gt;" style="text;html=1;strokeColor=none;fillColor=none;align=center;verticalAlign=middle;whiteSpace=wrap;rounded=1;" vertex="1" parent="wVWjdl_f4s-kxVcAb7ZQ-69">
          <mxGeometry x="15" y="37.5" width="90" height="45" as="geometry" />
        </mxCell>
        <mxCell id="wVWjdl_f4s-kxVcAb7ZQ-92" style="edgeStyle=orthogonalEdgeStyle;rounded=0;orthogonalLoop=1;jettySize=auto;html=1;exitX=1;exitY=1;exitDx=0;exitDy=0;entryX=0.5;entryY=1;entryDx=0;entryDy=0;fontFamily=Courier New;fontSize=24;strokeWidth=5;" edge="1" parent="wVWjdl_f4s-kxVcAb7ZQ-69" source="wVWjdl_f4s-kxVcAb7ZQ-70" target="wVWjdl_f4s-kxVcAb7ZQ-70">
          <mxGeometry relative="1" as="geometry">
            <Array as="points">
              <mxPoint x="140" y="102" />
              <mxPoint x="140" y="260" />
              <mxPoint x="60" y="260" />
            </Array>
          </mxGeometry>
        </mxCell>
        <mxCell id="wVWjdl_f4s-kxVcAb7ZQ-72" value="" style="group;rounded=1;" vertex="1" connectable="0" parent="1">
          <mxGeometry x="280" y="520" width="120" height="120" as="geometry" />
        </mxCell>
        <mxCell id="wVWjdl_f4s-kxVcAb7ZQ-73" value="" style="ellipse;whiteSpace=wrap;html=1;rounded=1;strokeWidth=5;" vertex="1" parent="wVWjdl_f4s-kxVcAb7ZQ-72">
          <mxGeometry width="120" height="120" as="geometry" />
        </mxCell>
        <mxCell id="wVWjdl_f4s-kxVcAb7ZQ-74" value="&lt;b style=&quot;font-size: 20px;&quot;&gt;Parallel&lt;br&gt;Out&lt;br&gt;&lt;/b&gt;" style="text;html=1;strokeColor=none;fillColor=none;align=center;verticalAlign=middle;whiteSpace=wrap;rounded=1;" vertex="1" parent="wVWjdl_f4s-kxVcAb7ZQ-72">
          <mxGeometry x="15" y="37.5" width="90" height="45" as="geometry" />
        </mxCell>
        <mxCell id="wVWjdl_f4s-kxVcAb7ZQ-75" value="&lt;font style=&quot;font-size: 24px;&quot; face=&quot;Courier New&quot;&gt;&lt;b&gt;000&lt;/b&gt;&lt;/font&gt;" style="text;html=1;strokeColor=none;fillColor=none;align=center;verticalAlign=middle;whiteSpace=wrap;rounded=0;fontColor=#0000FF;" vertex="1" parent="1">
          <mxGeometry x="40" y="160" width="60" height="30" as="geometry" />
        </mxCell>
        <mxCell id="wVWjdl_f4s-kxVcAb7ZQ-76" value="&lt;font style=&quot;font-size: 24px;&quot; face=&quot;Courier New&quot;&gt;&lt;b&gt;001&lt;/b&gt;&lt;/font&gt;" style="text;html=1;strokeColor=none;fillColor=none;align=center;verticalAlign=middle;whiteSpace=wrap;rounded=0;fontColor=#0000FF;" vertex="1" parent="1">
          <mxGeometry x="400" y="160" width="60" height="30" as="geometry" />
        </mxCell>
        <mxCell id="wVWjdl_f4s-kxVcAb7ZQ-77" value="&lt;font style=&quot;font-size: 24px;&quot; face=&quot;Courier New&quot;&gt;&lt;b&gt;010&lt;/b&gt;&lt;/font&gt;" style="text;html=1;strokeColor=none;fillColor=none;align=center;verticalAlign=middle;whiteSpace=wrap;rounded=0;fontColor=#0000FF;" vertex="1" parent="1">
          <mxGeometry x="750" y="160" width="60" height="30" as="geometry" />
        </mxCell>
        <mxCell id="wVWjdl_f4s-kxVcAb7ZQ-78" value="&lt;font style=&quot;font-size: 24px;&quot; face=&quot;Courier New&quot;&gt;&lt;b&gt;100&lt;/b&gt;&lt;/font&gt;" style="text;html=1;strokeColor=none;fillColor=none;align=center;verticalAlign=middle;whiteSpace=wrap;rounded=0;fontColor=#0000FF;" vertex="1" parent="1">
          <mxGeometry x="220" y="520" width="60" height="30" as="geometry" />
        </mxCell>
        <mxCell id="wVWjdl_f4s-kxVcAb7ZQ-79" value="&lt;font style=&quot;font-size: 24px;&quot; face=&quot;Courier New&quot;&gt;&lt;b&gt;011&lt;/b&gt;&lt;/font&gt;" style="text;html=1;strokeColor=none;fillColor=none;align=center;verticalAlign=middle;whiteSpace=wrap;rounded=0;fontColor=#0000FF;" vertex="1" parent="1">
          <mxGeometry x="560" y="520" width="60" height="30" as="geometry" />
        </mxCell>
        <mxCell id="wVWjdl_f4s-kxVcAb7ZQ-81" style="edgeStyle=orthogonalEdgeStyle;rounded=0;orthogonalLoop=1;jettySize=auto;html=1;exitX=1;exitY=0.5;exitDx=0;exitDy=0;entryX=0;entryY=0.5;entryDx=0;entryDy=0;fontFamily=Courier New;fontSize=24;strokeWidth=5;" edge="1" parent="1" source="wVWjdl_f4s-kxVcAb7ZQ-64" target="wVWjdl_f4s-kxVcAb7ZQ-67">
          <mxGeometry relative="1" as="geometry" />
        </mxCell>
        <mxCell id="wVWjdl_f4s-kxVcAb7ZQ-82" style="edgeStyle=orthogonalEdgeStyle;rounded=0;orthogonalLoop=1;jettySize=auto;html=1;exitX=1;exitY=0.5;exitDx=0;exitDy=0;entryX=1;entryY=0.5;entryDx=0;entryDy=0;fontFamily=Courier New;fontSize=24;strokeWidth=5;" edge="1" parent="1" source="wVWjdl_f4s-kxVcAb7ZQ-67" target="wVWjdl_f4s-kxVcAb7ZQ-70">
          <mxGeometry relative="1" as="geometry" />
        </mxCell>
        <mxCell id="wVWjdl_f4s-kxVcAb7ZQ-83" style="edgeStyle=orthogonalEdgeStyle;rounded=0;orthogonalLoop=1;jettySize=auto;html=1;exitX=1;exitY=0;exitDx=0;exitDy=0;entryX=0.5;entryY=1;entryDx=0;entryDy=0;fontFamily=Courier New;fontSize=24;strokeWidth=5;" edge="1" parent="1" source="wVWjdl_f4s-kxVcAb7ZQ-70" target="wVWjdl_f4s-kxVcAb7ZQ-67">
          <mxGeometry relative="1" as="geometry" />
        </mxCell>
        <mxCell id="wVWjdl_f4s-kxVcAb7ZQ-85" style="edgeStyle=none;rounded=0;orthogonalLoop=1;jettySize=auto;html=1;exitX=0;exitY=1;exitDx=0;exitDy=0;entryX=0.939;entryY=0.236;entryDx=0;entryDy=0;entryPerimeter=0;fontFamily=Courier New;fontSize=24;strokeWidth=5;" edge="1" parent="1" source="wVWjdl_f4s-kxVcAb7ZQ-67" target="wVWjdl_f4s-kxVcAb7ZQ-73">
          <mxGeometry relative="1" as="geometry" />
        </mxCell>
        <mxCell id="wVWjdl_f4s-kxVcAb7ZQ-87" style="edgeStyle=none;rounded=0;orthogonalLoop=1;jettySize=auto;html=1;exitX=0;exitY=0;exitDx=0;exitDy=0;entryX=0.6;entryY=1.008;entryDx=0;entryDy=0;entryPerimeter=0;fontFamily=Courier New;fontSize=24;strokeWidth=5;" edge="1" parent="1" source="wVWjdl_f4s-kxVcAb7ZQ-73" target="wVWjdl_f4s-kxVcAb7ZQ-8">
          <mxGeometry relative="1" as="geometry" />
        </mxCell>
        <mxCell id="wVWjdl_f4s-kxVcAb7ZQ-88" style="edgeStyle=none;rounded=0;orthogonalLoop=1;jettySize=auto;html=1;exitX=1;exitY=0.5;exitDx=0;exitDy=0;entryX=0;entryY=0.5;entryDx=0;entryDy=0;fontFamily=Courier New;fontSize=24;strokeWidth=5;" edge="1" parent="1" source="wVWjdl_f4s-kxVcAb7ZQ-8" target="wVWjdl_f4s-kxVcAb7ZQ-64">
          <mxGeometry relative="1" as="geometry" />
        </mxCell>
        <mxCell id="wVWjdl_f4s-kxVcAb7ZQ-89" value="&lt;font size=&quot;1&quot; style=&quot;&quot; face=&quot;Courier New&quot;&gt;&lt;b style=&quot;font-size: 14px;&quot;&gt;Rx = 0&lt;/b&gt;&lt;/font&gt;" style="text;html=1;strokeColor=none;fillColor=none;align=center;verticalAlign=middle;whiteSpace=wrap;rounded=0;fontColor=#FF0000;" vertex="1" parent="1">
          <mxGeometry x="280" y="220" width="90" height="30" as="geometry" />
        </mxCell>
        <mxCell id="wVWjdl_f4s-kxVcAb7ZQ-93" value="&lt;font style=&quot;font-size: 14px;&quot; face=&quot;Courier New&quot;&gt;&lt;b style=&quot;&quot;&gt;baud_count&lt;br&gt;= (baud_top - 1)/2&lt;br&gt;&lt;/b&gt;&lt;/font&gt;" style="text;html=1;strokeColor=none;fillColor=none;align=center;verticalAlign=middle;whiteSpace=wrap;rounded=0;fontColor=#FF0000;" vertex="1" parent="1">
          <mxGeometry x="600" y="230" width="160" height="30" as="geometry" />
        </mxCell>
        <mxCell id="wVWjdl_f4s-kxVcAb7ZQ-95" value="&lt;font style=&quot;font-size: 14px;&quot; face=&quot;Courier New&quot;&gt;&lt;b style=&quot;&quot;&gt;baud_count&lt;br&gt;&amp;lt; (baud_top - 1)/2&lt;br&gt;&lt;/b&gt;&lt;/font&gt;" style="text;html=1;strokeColor=none;fillColor=none;align=center;verticalAlign=middle;whiteSpace=wrap;rounded=0;fontColor=#FF0000;" vertex="1" parent="1">
          <mxGeometry x="580" y="40" width="200" height="30" as="geometry" />
        </mxCell>
        <mxCell id="wVWjdl_f4s-kxVcAb7ZQ-96" value="&lt;font style=&quot;font-size: 14px;&quot; face=&quot;Courier New&quot;&gt;&lt;b style=&quot;&quot;&gt;bit_count&lt;br&gt;= bit_top - 1&lt;br&gt;&lt;/b&gt;&lt;/font&gt;" style="text;html=1;strokeColor=none;fillColor=none;align=center;verticalAlign=middle;whiteSpace=wrap;rounded=0;fontColor=#FF0000;" vertex="1" parent="1">
          <mxGeometry x="460" y="340" width="200" height="30" as="geometry" />
        </mxCell>
        <mxCell id="wVWjdl_f4s-kxVcAb7ZQ-97" value="&lt;font style=&quot;font-size: 14px;&quot; face=&quot;Courier New&quot;&gt;&lt;b style=&quot;&quot;&gt;baud_count&lt;br&gt;&amp;lt; baud_top - 1&lt;br&gt;&lt;/b&gt;&lt;/font&gt;" style="text;html=1;strokeColor=none;fillColor=none;align=center;verticalAlign=middle;whiteSpace=wrap;rounded=0;fontColor=#FF0000;" vertex="1" parent="1">
          <mxGeometry x="730" y="740" width="200" height="30" as="geometry" />
        </mxCell>
        <mxCell id="wVWjdl_f4s-kxVcAb7ZQ-98" value="&lt;font style=&quot;font-size: 14px;&quot; face=&quot;Courier New&quot;&gt;&lt;b style=&quot;&quot;&gt;bit_count&lt;br&gt;&amp;lt; bit_top - 1&lt;br&gt;&lt;/b&gt;&lt;/font&gt;" style="text;html=1;strokeColor=none;fillColor=none;align=center;verticalAlign=middle;whiteSpace=wrap;rounded=0;fontColor=#FF0000;" vertex="1" parent="1">
          <mxGeometry x="950" y="410" width="120" height="30" as="geometry" />
        </mxCell>
        <mxCell id="wVWjdl_f4s-kxVcAb7ZQ-100" value="&lt;font style=&quot;font-size: 18px;&quot; face=&quot;Courier New&quot;&gt;&lt;b style=&quot;&quot;&gt;&lt;font&gt;Rx_done &amp;lt;= shift_reg(9)=0 and shift_reg(0)=1&lt;br&gt;Rx_error &amp;lt;= !shift_reg(9)=0 and !shift_reg(0)=1&lt;br&gt;Rx_data &amp;lt;= shift_reg(8 downto 1)&lt;/font&gt;&lt;br&gt;&lt;/b&gt;&lt;/font&gt;" style="text;html=1;strokeColor=none;fillColor=none;align=center;verticalAlign=middle;whiteSpace=wrap;rounded=0;fontColor=#FF0000;" vertex="1" parent="1">
          <mxGeometry x="70" y="630" width="540" height="110" as="geometry" />
        </mxCell>
        <mxCell id="wVWjdl_f4s-kxVcAb7ZQ-101" value="&lt;font style=&quot;font-size: 14px;&quot; face=&quot;Courier New&quot;&gt;&lt;b style=&quot;&quot;&gt;baud_count&lt;br&gt;= baud_top - 1&lt;br&gt;&lt;/b&gt;&lt;/font&gt;" style="text;html=1;strokeColor=none;fillColor=none;align=center;verticalAlign=middle;whiteSpace=wrap;rounded=0;fontColor=#FF0000;" vertex="1" parent="1">
          <mxGeometry x="700" y="420" width="200" height="30" as="geometry" />
        </mxCell>
      </root>
    </mxGraphModel>
  </diagram>
</mxfile>
